<svg width="52" height="51" viewBox="0 0 52 51" fill="none" xmlns="http://www.w3.org/2000/svg">
<path d="M50.8575 25.4873C50.8575 38.8707 39.9269 49.7584 26.4908 49.7584C13.0548 49.7584 2.12415 38.8707 2.12415 25.4873C2.12415 12.1039 13.0548 1.21617 26.4908 1.21617C39.9269 1.21617 50.8575 12.1039 50.8575 25.4873V25.4873ZM51.9907 25.4873C51.9907 11.5173 40.5157 0.0872798 26.4907 0.0872792C12.4657 0.0872785 0.990721 11.5173 0.990721 25.4873C0.99072 39.4573 12.4657 50.8873 26.4907 50.8873C40.5157 50.8873 51.9907 39.4573 51.9907 25.4873V25.4873Z" fill="#EAB665"/>
<path d="M26.4908 14.1986C26.8023 14.1986 27.0576 14.4526 27.0576 14.7632L27.0576 36.2121C27.0576 36.5224 26.8027 36.7767 26.4908 36.7767C26.1793 36.7767 25.924 36.5228 25.924 36.2121L25.924 14.7632C25.924 14.4526 26.1793 14.1986 26.4908 14.1986V14.1986Z" fill="#EAB665"/>
<path d="M26.0891 14.3639C25.8686 14.5836 25.8686 14.9423 26.0891 15.162L32.7238 21.7706C32.9443 21.9903 33.3044 21.9903 33.525 21.7706C33.7456 21.5509 33.7456 21.1922 33.525 20.9725L26.8904 14.3639C26.6702 14.1442 26.3093 14.1442 26.0891 14.3639V14.3639Z" fill="#EAB665"/>
<path d="M26.8917 14.3639C26.6711 14.1442 26.311 14.1442 26.0905 14.3639L19.4558 20.9721C19.2353 21.1918 19.2353 21.5505 19.4558 21.7702C19.6764 21.9899 20.0365 21.9899 20.2571 21.7702L26.8917 15.162C27.1123 14.9423 27.1123 14.5832 26.8917 14.3639V14.3639Z" fill="#EAB665"/>
</svg>
