<svg width="23" height="33" viewBox="0 0 23 33" fill="none" xmlns="http://www.w3.org/2000/svg">
<path d="M11.3625 32.7023C11.0511 32.7023 10.7533 32.5747 10.5387 32.349C10.1126 31.8956 0 21.1524 0 12.2499C0.0397244 9.24886 1.24965 6.38177 3.37193 4.25926C5.49416 2.13703 8.36142 0.927098 11.3626 0.887329C14.3636 0.927053 17.2307 2.13697 19.3533 4.25926C21.4755 6.38148 22.6854 9.24875 22.7252 12.2499C22.7252 21.1524 12.6126 31.8956 12.1865 32.349C11.9719 32.5747 11.6741 32.7023 11.3627 32.7023H11.3625ZM11.3625 3.15987C8.96147 3.1916 6.6679 4.15965 4.96995 5.85732C3.27222 7.55527 2.3042 9.84885 2.2725 12.2499C2.2725 18.8696 8.98204 27.1415 11.3625 29.8674C13.7417 27.1404 20.4525 18.8605 20.4525 12.2555C20.4221 9.85345 19.4549 7.55851 17.757 5.85903C16.0588 4.16 13.7644 3.19129 11.3628 3.15953L11.3625 3.15987Z" fill="#D48A5C"/>
<path d="M11.3624 16.7947C10.1569 16.7947 9.00091 16.3158 8.1485 15.4636C7.29631 14.6112 6.81738 13.4551 6.81738 12.2497C6.81738 11.0443 7.29629 9.88824 8.1485 9.03583C9.00091 8.18364 10.1569 7.70471 11.3624 7.70471C12.5678 7.70471 13.7238 8.18362 14.5762 9.03583C15.4284 9.88824 15.9074 11.0443 15.9074 12.2497C15.9074 13.4551 15.4285 14.6112 14.5762 15.4636C13.7238 16.3158 12.5678 16.7947 11.3624 16.7947ZM11.3624 9.97721C10.7597 9.97721 10.1818 10.2167 9.75543 10.6428C9.32934 11.0691 9.08988 11.647 9.08988 12.2497C9.08988 12.8524 9.32933 13.4303 9.75543 13.8566C10.1817 14.2827 10.7597 14.5222 11.3624 14.5222C11.9651 14.5222 12.543 14.2827 12.9693 13.8566C13.3954 13.4303 13.6349 12.8524 13.6349 12.2497C13.6349 11.647 13.3954 11.0691 12.9693 10.6428C12.543 10.2167 11.9651 9.97721 11.3624 9.97721Z" fill="#D48A5C"/>
</svg>
