<svg width="19" height="30" viewBox="0 0 19 30" fill="none" xmlns="http://www.w3.org/2000/svg">
<path d="M14.2305 0.391968H4.35026C3.23875 0.392817 2.17305 0.834667 1.38724 1.62051C0.601418 2.40633 0.159561 3.47197 0.158691 4.58354V25.1174C0.159541 26.2289 0.60139 27.2946 1.38724 28.0805C2.17305 28.8663 3.23869 29.3081 4.35026 29.309H14.2305C15.342 29.3082 16.4077 28.8663 17.1935 28.0805C17.9793 27.2946 18.4212 26.229 18.422 25.1174V4.58354C18.4212 3.47202 17.9793 2.40633 17.1935 1.62051C16.4077 0.834694 15.342 0.392837 14.2305 0.391968V0.391968ZM16.9 25.1178C16.8983 25.8253 16.6166 26.5034 16.1163 27.0036C15.6161 27.5039 14.9379 27.7856 14.2305 27.7873H4.35026C3.64277 27.7856 2.96463 27.5039 2.4644 27.0036C1.96417 26.5034 1.68239 25.8252 1.6807 25.1178V4.58387C1.6824 3.87638 1.96415 3.19824 2.4644 2.698C2.96464 2.19777 3.64283 1.91599 4.35026 1.9143H14.2305C14.938 1.916 15.6161 2.19776 16.1163 2.698C16.6166 3.19825 16.8983 3.87643 16.9 4.58387V25.1178Z" fill="#D48A5C"/>
<path d="M10.812 24.7435C10.812 25.5841 10.1306 26.2655 9.29002 26.2655C8.44941 26.2655 7.76807 25.5841 7.76807 24.7435C7.76807 23.9029 8.44941 23.2216 9.29002 23.2216C10.1306 23.2216 10.812 23.9029 10.812 24.7435Z" fill="#D48A5C"/>
</svg>
